<svg width="94" height="121" viewBox="0 0 94 121" fill="none" xmlns="http://www.w3.org/2000/svg">
<path d="M9.13281 13.8242C9.48438 13.7383 9.76562 13.8594 9.97656 14.1875C10.1875 14.5078 10.0391 15.3242 9.53125 16.6367C9.03125 17.9492 8.82422 19.0234 8.91016 19.8594C9.00391 20.6875 9.25391 21.125 9.66016 21.1719C10.0977 21.1719 10.3906 21.3984 10.5391 21.8516L10.5625 22.0156V22.1445C10.5625 22.5195 10.3359 22.793 9.88281 22.9648L9.66016 22.9883C8.80859 22.9883 8.21875 22.7578 7.89062 22.2969C7.5625 21.8281 7.42188 21.1289 7.46875 20.1992H7.44531C6.48438 21.6445 5.54297 22.6836 4.62109 23.3164C3.83203 23.9102 3.11328 24.3711 2.46484 24.6992C1.94922 24.9648 1.62109 25.0977 1.48047 25.0977H1.28125C0.8125 25.0977 0.472656 24.875 0.261719 24.4297L0.238281 24.2188V24.125C0.238281 23.6875 0.570312 23.3555 1.23438 23.1289C2.29688 22.6211 3.125 22.1289 3.71875 21.6523C4.32031 21.168 5.03906 20.4102 5.875 19.3789C6.71875 18.3398 7.38281 17.1758 7.86719 15.8867C8.35938 14.5977 8.78125 13.9102 9.13281 13.8242ZM13.5977 19.4492C13.5273 19.6758 13.5 19.9883 13.5156 20.3867C13.5312 20.7773 13.8086 21.0078 14.3477 21.0781C14.8398 21.0391 15.1523 21.3242 15.2852 21.9336V22.1445C15.1602 22.7148 14.8359 23 14.3125 23C13.0234 23.0078 12.3125 22.5312 12.1797 21.5703C11.8359 22.1016 11.4805 22.4727 11.1133 22.6836C10.7461 22.8945 10.293 23.0117 9.75391 23.0352C9.05859 22.9258 8.73438 22.582 8.78125 22.0039C8.82031 21.4258 9.13281 21.0898 9.71875 20.9961C10.6406 20.9961 11.3438 20.2695 11.8281 18.8164C12.3203 17.3633 12.7031 16.4922 12.9766 16.2031C13.25 15.9141 13.5547 15.8203 13.8906 15.9219C14.5391 16.25 14.6328 16.8828 14.1719 17.8203C13.8594 18.6719 13.668 19.2148 13.5977 19.4492ZM14.2656 27.2773C14.4453 27.2773 14.5781 27.3867 14.6641 27.6055L14.4648 28.4023C14.418 28.6758 12.9023 29.0352 9.91797 29.4805H9.84766C9.35547 29.4805 9.10938 29.2773 9.10938 28.8711C9.10938 28.3633 9.38672 28.0195 9.94141 27.8398C10.7148 27.6523 12.1562 27.4648 14.2656 27.2773ZM18.1328 19.4492C18.0625 19.6758 18.0352 19.9883 18.0508 20.3867C18.0664 20.7773 18.3438 21.0078 18.8828 21.0781C19.375 21.0391 19.6875 21.3242 19.8203 21.9336V22.1445C19.6953 22.7148 19.3711 23 18.8477 23C17.5586 23.0078 16.8477 22.5312 16.7148 21.5703C16.3711 22.1016 16.0156 22.4727 15.6484 22.6836C15.2812 22.8945 14.8281 23.0117 14.2891 23.0352C13.5938 22.9258 13.2695 22.582 13.3164 22.0039C13.3555 21.4258 13.668 21.0898 14.2539 20.9961C15.1758 20.9961 15.8789 20.2695 16.3633 18.8164C16.8555 17.3633 17.2383 16.4922 17.5117 16.2031C17.7852 15.9141 18.0898 15.8203 18.4258 15.9219C19.0742 16.25 19.168 16.8828 18.707 17.8203C18.3945 18.6719 18.2031 19.2148 18.1328 19.4492ZM17.8633 9.81641C18.4336 9.81641 18.918 10.1914 19.3164 10.9414V11.1758C19.3164 11.5586 18.9727 11.8242 18.2852 11.9727H18.0508C17.457 11.9727 17.0977 11.5195 16.9727 10.6133C16.9727 10.1602 17.2695 9.89453 17.8633 9.81641ZM23.3242 13.7891C23.1055 12.6953 23.1289 12.0195 23.3945 11.7617C23.668 11.4961 23.9492 11.4805 24.2383 11.7148C24.5273 11.9414 24.793 12.5859 25.0352 13.6484C25.2773 14.7109 25.3203 16.0547 25.1641 17.6797C25.0078 19.2969 24.3203 20.5664 23.1016 21.4883C21.8906 22.4023 20.5156 22.9062 18.9766 23C18.3125 22.9375 17.9805 22.6641 17.9805 22.1797V21.9102C17.9805 21.3711 18.3125 21.1016 18.9766 21.1016C19.9297 21.1016 20.8945 20.7031 21.8711 19.9062C22.8555 19.1016 23.3984 18.1523 23.5 17.0586C23.6094 15.9648 23.5508 14.875 23.3242 13.7891ZM34.2461 1.08594C34.6836 1.08594 34.9844 1.33203 35.1484 1.82422V2.07031C35.1484 2.375 34.1875 3.10938 32.2656 4.27344C30.3516 5.42969 28.8008 6.34766 27.6133 7.02734C26.4258 7.69922 25.4883 8.17188 24.8008 8.44531C24.1211 8.71094 23.7148 8.57812 23.582 8.04688C23.457 7.50781 23.7227 7.07422 24.3789 6.74609C25.043 6.41016 26.2031 5.82813 27.8594 5C29.5156 4.16406 31.4805 2.91406 33.7539 1.25L34.2461 1.08594ZM58.4336 11.4922H58.6914C59.1992 11.4922 59.4883 11.8789 59.5586 12.6523C59.8633 14.5508 60.0156 16.1992 60.0156 17.5977C60.0156 19.5273 59.6836 20.9258 59.0195 21.793C57.7617 23.5898 56.2539 24.9727 54.4961 25.9414C51.1758 27.957 47.6602 28.9648 43.9492 28.9648C40.3867 28.9648 37.1445 27.9961 34.2227 26.0586C32.7852 24.8789 32.0664 23.582 32.0664 22.168C32.0664 20.082 33.3828 18.0742 36.0156 16.1445C39.8047 13.7695 43.168 12.3867 46.1055 11.9961C46.6836 12.0977 46.9727 12.3711 46.9727 12.8164V13.0742C46.9727 13.5664 46.3789 13.8828 45.1914 14.0234C44.7617 14.0234 43.3906 14.4688 41.0781 15.3594C39.125 16.3047 37.4102 17.3555 35.9336 18.5117C34.5742 19.8477 33.8945 21.0508 33.8945 22.1211C33.8945 23.3242 34.5859 24.4727 35.9688 25.5664C37.9531 26.7852 40.3086 27.3945 43.0352 27.3945H43.4922C48.1328 27.3945 52.2578 25.9023 55.8672 22.918C57.0703 21.7383 57.7891 20.6562 58.0234 19.6719C58.1328 19.1406 58.1875 18.4219 58.1875 17.5156C58.1875 16.3984 58.0234 14.6523 57.6953 12.2773V12.2422C57.8594 11.7422 58.1055 11.4922 58.4336 11.4922ZM49.9609 18.1719C50.5312 18.1719 51.0156 18.5469 51.4141 19.2969V19.5312C51.4141 19.9141 51.0703 20.1797 50.3828 20.3281H50.1484C49.5547 20.3281 49.1953 19.875 49.0703 18.9688C49.0703 18.5156 49.3672 18.25 49.9609 18.1719ZM66.3203 11.7734H66.6367C67.0352 11.7734 67.3047 12.0156 67.4453 12.5V12.6758C67.4453 12.9961 66.9961 13.6172 66.0977 14.5391C64.3477 16.6094 63.4727 18.1758 63.4727 19.2383V19.5078C63.5898 20.5703 64.0391 21.1016 64.8203 21.1016C65.4844 21.1016 65.8164 21.3711 65.8164 21.9102V22.1797C65.8164 22.6641 65.4844 22.9375 64.8203 23C63.3125 23 62.2891 22.168 61.75 20.5039L61.6562 19.5078V19.3789C61.6562 17.4336 63.0898 14.9453 65.957 11.9141L66.3203 11.7734ZM72.7773 19.8828C72.8945 20.5938 73.6328 20.9961 74.9922 21.0898C75.375 21.1289 75.6406 21.2891 75.7891 21.5703C75.9375 21.8438 75.9688 22.1094 75.8828 22.3672C75.8047 22.625 75.6367 22.8086 75.3789 22.918C75.1211 23.0273 74.6758 23.043 74.043 22.9648C73.4102 22.8867 72.7812 22.457 72.1562 21.6758C71.5312 20.8867 71.2969 20.2227 71.4531 19.6836C71.6172 19.1367 71.8477 18.8555 72.1445 18.8398C72.4492 18.8242 72.6602 19.1719 72.7773 19.8828ZM69.3906 14.4805H69.4141C70.1094 14.4805 70.9062 15.1016 71.8047 16.3438C72.3828 17.0859 72.7344 17.5195 72.8594 17.6445C73.5391 17.1758 74.0156 16.9414 74.2891 16.9414H74.5C74.8125 16.9414 75.0703 17.1484 75.2734 17.5625C75.3203 17.6641 75.3438 17.7773 75.3438 17.9023C75.3438 18.3711 75.0547 18.8828 74.4766 19.4375C74.0938 19.7344 73.7227 19.8828 73.3633 19.8828L72.9414 19.7773C71.6289 20.7695 70.4883 21.5078 69.5195 21.9922C68.5508 22.4688 67.6562 22.7578 66.8359 22.8594C66.0156 22.9531 65.4453 23 65.125 23H65.043C64.6445 23 64.3594 22.8008 64.1875 22.4023L64.1406 22.1445V22.0156C64.1406 21.625 64.3789 21.3477 64.8555 21.1836C66.1992 21.1602 67.4102 20.9297 68.4883 20.4922C69.5742 20.0469 70.5898 19.3672 71.5352 18.4531C70.6211 17.0781 69.8945 16.3906 69.3555 16.3906C68.9961 16.3984 68.3008 17.1406 67.2695 18.6172C67.0039 18.9531 66.7891 19.1211 66.625 19.1211C66.4297 19.1211 66.2109 18.9023 65.9688 18.4648L65.9219 18.1719C65.9219 17.5781 66.3867 16.8281 67.3164 15.9219C68.1992 14.9609 68.8906 14.4805 69.3906 14.4805ZM78.8828 19.4492C78.8125 19.6758 78.7852 19.9883 78.8008 20.3867C78.8164 20.7773 79.0938 21.0078 79.6328 21.0781C80.125 21.0391 80.4375 21.3242 80.5703 21.9336V22.1445C80.4453 22.7148 80.1211 23 79.5977 23C78.3086 23.0078 77.5977 22.5312 77.4648 21.5703C77.1211 22.1016 76.7656 22.4727 76.3984 22.6836C76.0312 22.8945 75.5781 23.0117 75.0391 23.0352C74.3438 22.9258 74.0195 22.582 74.0664 22.0039C74.1055 21.4258 74.418 21.0898 75.0039 20.9961C75.9258 20.9961 76.6289 20.2695 77.1133 18.8164C77.6055 17.3633 77.9883 16.4922 78.2617 16.2031C78.5352 15.9141 78.8398 15.8203 79.1758 15.9219C79.8242 16.25 79.918 16.8828 79.457 17.8203C79.1445 18.6719 78.9531 19.2148 78.8828 19.4492ZM82.7969 11.8555C83 11.8555 83.1484 11.9648 83.2422 12.1836L83.0195 12.9805C82.9727 13.2539 81.6055 13.4766 78.918 13.6484H78.8477C78.3008 13.6484 78.0273 13.4453 78.0273 13.0391C78.0273 12.5312 78.3359 12.1875 78.9531 12.0078L82.7969 11.8555ZM84.8828 16.3555H84.9414C85.4414 16.3555 85.8555 16.6016 86.1836 17.0938C86.5195 17.5859 86.6719 18.3008 86.6406 19.2383C86.6172 20.168 86.3594 21.0273 85.8672 21.8164C85.375 22.6055 84.582 23.0117 83.4883 23.0352C82.5195 22.957 81.8516 22.5586 81.4844 21.8398C80.7656 22.6992 80.1055 23.082 79.5039 22.9883C79.0117 22.8555 78.7578 22.5781 78.7422 22.1562C78.7188 21.7266 78.832 21.4336 79.082 21.2773C79.332 21.1133 79.6016 21.0156 79.8906 20.9844C80.1875 20.9453 80.5117 20.707 80.8633 20.2695C81.2148 19.832 81.7617 19.0703 82.5039 17.9844C83.2461 16.8984 84.0391 16.3555 84.8828 16.3555ZM83.3828 21.2773C83.8281 21.3945 84.2617 21.2539 84.6836 20.8555C85.1133 20.4492 85.3125 19.9922 85.2812 19.4844C85.2578 18.9688 85.082 18.6406 84.7539 18.5C84.4258 18.3594 84 18.6406 83.4766 19.3438C82.9531 20.0469 82.6523 20.5039 82.5742 20.7148C82.668 20.9727 82.9375 21.1602 83.3828 21.2773ZM91.5039 9.93359C91.9648 9.93359 92.2695 10.1836 92.418 10.6836L92.4297 10.8477C92.4297 11.4492 92.1992 14.1406 91.7383 18.9219L91.4336 22.9062C91.2227 23.375 90.9258 23.6094 90.543 23.6094H90.5312C89.9062 23.5391 89.5938 23.25 89.5938 22.7422C90.1016 18.8906 90.3555 16.4609 90.3555 15.4531C90.4961 13.4531 90.5664 11.918 90.5664 10.8477C90.5664 10.3867 90.8438 10.082 91.3984 9.93359H91.5039Z" fill="#FFCF71"/>
<path d="M46.7929 120.707C47.1834 121.098 47.8166 121.098 48.2071 120.707L54.5711 114.343C54.9616 113.953 54.9616 113.319 54.5711 112.929C54.1805 112.538 53.5474 112.538 53.1569 112.929L47.5 118.586L41.8431 112.929C41.4526 112.538 40.8195 112.538 40.4289 112.929C40.0384 113.319 40.0384 113.953 40.4289 114.343L46.7929 120.707ZM48.5 56C48.5 55.4477 48.0523 55 47.5 55C46.9477 55 46.5 55.4477 46.5 56L48.5 56ZM46.5 56L46.5 120L48.5 120L48.5 56L46.5 56Z" fill="url(#paint0_linear_1336_2458)"/>
<defs>
<linearGradient id="paint0_linear_1336_2458" x1="48.0003" y1="120" x2="48.0002" y2="56" gradientUnits="userSpaceOnUse">
<stop stop-color="white"/>
<stop offset="1" stop-color="#FFCF71"/>
</linearGradient>
</defs>
</svg>
