<svg width="350" height="397" viewBox="0 0 350 397" fill="none" xmlns="http://www.w3.org/2000/svg">
<path fill-rule="evenodd" clip-rule="evenodd" d="M345.592 65.7856C348.084 65.7856 350 67.7139 350 70.0277C350 72.2235 348.274 74.0721 345.969 74.255L345.969 236.538L345.969 236.953L345.674 237.246L225.229 357.081L225.229 396C225.229 396.552 224.782 397 224.229 397C223.677 397 223.229 396.552 223.229 396L223.229 141.932C221.4 141.471 220.014 139.782 220.014 137.814C220.014 135.5 221.931 133.572 224.231 133.572C226.722 133.572 228.639 135.5 228.639 137.814C228.639 139.808 227.216 141.515 225.229 141.949L225.229 296.2L282.259 238.822L282.259 203.557C280.565 203.005 279.314 201.387 279.314 199.517C279.314 197.203 281.23 195.275 283.53 195.275C285.83 195.275 287.938 197.203 287.938 199.517C287.938 201.584 286.256 203.343 284.259 203.695L284.259 239.234L284.259 239.647L283.968 239.939L225.229 299.037L225.229 326.669L325.187 226.1L325.187 140.719C323.357 140.187 322.075 138.552 322.075 136.659C322.075 134.153 323.992 132.225 326.483 132.225C328.783 132.225 330.699 134.153 330.699 136.659C330.699 138.732 329.161 140.496 327.187 140.841L327.187 226.512L327.187 226.925L326.897 227.217L225.229 329.506L225.229 354.26L343.969 236.122L343.969 73.9348C342.457 73.2854 341.376 71.7653 341.376 70.0277C341.376 67.7139 343.292 65.7856 345.592 65.7856ZM26.2559 136.659C26.2559 134.153 24.3393 132.225 22.0395 132.225C19.5481 132.225 17.6316 134.153 17.6316 136.659C17.6316 138.961 19.5271 140.88 21.9985 140.901L21.9985 226.512L21.9985 226.925L22.2892 227.217L123.956 329.506L123.956 354.26L5.21682 236.122L5.21682 74.1625C7.20269 73.7271 8.62402 72.0204 8.62402 70.0277C8.62402 67.7139 6.70755 65.7856 4.21609 65.7856C1.91632 65.7856 -0.000216583 67.7139 -0.000216684 70.0277C-0.00021677 71.9962 1.38681 73.6855 3.21682 74.146L3.21682 236.538L3.21682 236.953L3.51153 237.246L123.956 357.081L123.956 396C123.956 396.552 124.404 397 124.956 397C125.508 397 125.956 396.552 125.956 396L125.956 298.625L125.956 298.622L125.956 141.932C127.786 141.471 129.172 139.782 129.172 137.814C129.172 135.5 127.255 133.572 124.956 133.572C122.464 133.572 120.548 135.5 120.548 137.814C120.548 139.807 121.97 141.514 123.956 141.949L123.956 296.199L66.9279 238.822L66.9279 203.638C68.8043 203.182 70.3359 201.49 70.3359 199.517C70.3359 197.203 68.2277 195.275 65.9279 195.275C63.6282 195.275 61.7117 197.203 61.7117 199.517C61.7117 201.486 63.0983 203.175 64.9279 203.635L64.9279 239.234L64.9279 239.647L65.2187 239.939L123.956 299.036L123.956 326.669L23.9985 226.1L23.9985 140.404C25.3325 139.686 26.2559 138.266 26.2559 136.659ZM174.357 1.04298C172.33 1.3393 170.733 3.12995 170.733 5.24197C170.733 7.35399 172.33 9.14474 174.357 9.44107L174.357 395.681C174.357 396.234 174.805 396.681 175.357 396.681C175.91 396.681 176.357 396.234 176.357 395.681L176.357 9.26732C178.128 8.7017 179.357 7.09557 179.357 5.24197C179.357 3.38837 178.128 1.78232 176.357 1.21672L176.357 0.999992C176.357 0.447708 175.91 -7.6581e-06 175.357 -7.63387e-06C174.805 -7.60964e-06 174.357 0.447708 174.357 0.999992L174.357 1.04298Z" fill="url(#paint0_linear_1336_7024)"/>
<defs>
<linearGradient id="paint0_linear_1336_7024" x1="175.358" y1="-1.19439e-05" x2="175.358" y2="397" gradientUnits="userSpaceOnUse">
<stop stop-color="#1E2845"/>
<stop offset="1" stop-color="#0B1226"/>
</linearGradient>
</defs>
</svg>
