<svg width="64" height="64" viewBox="0 0 64 64" fill="none" xmlns="http://www.w3.org/2000/svg">
<path d="M17.7015 14.3206C18.1869 14.4272 18.6295 14.6512 19.1202 15.0406C19.5949 15.4192 23.9149 19.6966 32.6029 28.4006C38.4589 34.2619 39.5149 35.3446 40.2935 36.2672C41.3175 37.4832 41.5255 37.8352 41.9522 39.1259C42.3309 40.2726 42.5602 41.6752 42.4802 42.3472C42.4162 42.8752 42.1389 43.2539 41.8242 43.2539C41.2642 43.2539 39.6909 42.4379 38.8695 41.7179C38.5175 41.4086 38.3522 41.2219 37.6535 40.3472C37.0562 39.6006 36.0322 38.4006 35.3335 37.6272C35.0935 37.3606 34.3149 36.4966 33.5949 35.7072C31.4935 33.3926 30.7309 32.5019 26.8269 27.8139C26.5762 27.5152 25.8455 26.6352 25.2002 25.8619C22.2029 22.2726 20.8749 20.6086 18.7522 17.7606C18.1709 16.9819 17.5629 16.1926 17.4029 16.0006C17.2375 15.8139 17.0615 15.5579 17.0135 15.4406C16.7789 14.9179 16.7469 14.8272 16.7469 14.6512C16.7469 14.4859 16.7735 14.4486 16.9602 14.3526C17.2109 14.2246 17.2375 14.2246 17.7015 14.3206Z" fill="#1089FF"/>
<path d="M42.8374 15.1684C43.1148 15.2537 43.1681 15.323 43.1521 15.6004C43.1361 15.931 43.2428 16.2777 44.2508 19.2537C45.4134 22.6884 45.4988 22.923 46.3041 25.0937C47.5094 28.3204 47.6694 28.8804 47.8134 30.2404C47.9041 31.0884 47.9148 32.4697 47.8348 32.9604C47.7708 33.3657 47.5468 33.8937 47.3974 34.0004C47.2748 34.0857 47.0934 34.0217 47.0934 33.8884C47.0934 33.8404 46.9174 33.4777 46.6988 33.0777C46.1654 32.0857 45.6054 30.8697 45.2854 30.0164C45.0188 29.2964 44.1868 26.6724 43.7548 25.1737C43.2428 23.403 42.3415 19.499 42.0268 17.707C41.9041 17.0244 41.8241 15.7444 41.8881 15.499C41.9308 15.3284 42.2881 15.0937 42.4908 15.099C42.5761 15.1044 42.7308 15.131 42.8374 15.1684Z" fill="#1089FF"/>
<path d="M12.0533 36.1331C12.5706 36.2398 13.8399 36.5598 14.7786 36.8265C15.7386 37.1038 16.5973 37.3971 19.5466 38.4691C20.7199 38.8958 22.0639 39.3758 22.5333 39.5358C25.7333 40.6398 30.0053 42.2985 30.7199 42.7198C31.5146 43.1838 32.6559 44.3625 32.9439 45.0025C33.1893 45.5571 33.0719 45.8825 32.5386 46.1278C31.7279 46.4958 30.5653 46.7305 29.5466 46.7305C28.7519 46.7305 28.4319 46.6505 27.1466 46.1171C25.7973 45.5571 25.0506 45.2105 22.6666 44.0211C20.1813 42.7785 19.0399 42.1491 17.0666 40.9438C16.3466 40.5011 15.4453 39.9465 15.0666 39.7171C14.6826 39.4825 13.8239 38.9758 13.1466 38.5971C11.9466 37.9145 11.5306 37.6158 11.3866 37.3278C11.2426 37.0558 11.1466 36.7198 11.1466 36.4905C11.1466 36.2985 11.168 36.2558 11.2746 36.2131C11.344 36.1865 11.4186 36.1385 11.44 36.1118C11.4826 36.0371 11.6106 36.0425 12.0533 36.1331Z" fill="#1089FF"/>
</svg>
