<svg width="41" height="40" viewBox="0 0 41 40" fill="none" xmlns="http://www.w3.org/2000/svg">
<path d="M2.65773 8.69964C3.74569 6.59975 9.45354 1.50705 14.0597 0.517452C16.1246 0.0738314 16.8813 1.21841 16.977 2.88493C26.2942 3.96455 34.995 11.833 36.9909 21.3793C37.5308 23.9616 37.5287 26.4211 37.063 28.6567L39.3366 28.6207C38.2476 31.6092 34.6251 37.8621 26.0963 39.6552C25.7718 39.7234 25.4477 39.7774 25.1244 39.8181C24.3108 39.938 23.4667 40 22.5954 40C12.4949 40 2.56377 31.6633 0.413631 21.3793C-0.610544 16.4808 0.315442 12.024 2.65773 8.69964Z" fill="#8CBB2B"/>
<ellipse cx="17.9576" cy="18.8472" rx="17.9576" ry="18.8472" transform="matrix(1 0 0.204653 0.978835 0.344971 0)" fill="#BCF449"/>
<ellipse cx="14.1039" cy="14.7959" rx="14.1039" ry="14.7959" transform="matrix(1 0 0.204653 0.978835 5.40942 3.10352)" fill="#0B1226"/>
<ellipse cx="10.4393" cy="10.6907" rx="10.4393" ry="10.6907" transform="matrix(1 0 0.204653 0.978835 10.2793 6.65723)" fill="#BCF449"/>
<ellipse cx="6.68932" cy="6.70654" rx="6.68932" ry="6.70654" transform="matrix(1 0 0.204653 0.978835 15.4788 10.1235)" fill="#0B1226"/>
<ellipse cx="3.30144" cy="3.30994" rx="3.30144" ry="3.30994" transform="matrix(1 0 0.204653 0.978835 19.562 13.4482)" fill="#BCF449"/>
</svg>
